<svg width="24" height="24" viewBox="0 0 24 24" fill="none" xmlns="http://www.w3.org/2000/svg">
<g clip-path="url(#clip0_208_580)">
<path d="M14.0002 24C10.8187 23.9966 7.76845 22.7312 5.51876 20.4815C3.26907 18.2318 2.00368 15.1816 2.00024 12C1.84724 3.04401 12.0312 -2.98498 19.7912 1.50902L21.3442 2.37102L19.8012 3.25102C13.1012 6.93902 13.5912 17.121 20.6012 20.157L22.2222 20.888L20.7552 21.894C18.7686 23.2635 16.4132 23.9978 14.0002 24ZM14.0002 2.00002C11.349 2.00293 8.80712 3.05743 6.93239 4.93216C5.05765 6.8069 4.00315 9.34874 4.00024 12C3.84524 19.117 11.7632 24.2 18.1552 21.082C16.6588 20.0777 15.4182 18.737 14.5329 17.1672C13.6477 15.5974 13.1422 13.8421 13.0571 12.0419C12.9719 10.2417 13.3094 8.44658 14.0426 6.80023C14.7758 5.15389 15.8842 3.70207 17.2792 2.56102C16.2265 2.18746 15.1173 1.9977 14.0002 2.00002Z" fill="white"/>
</g>
<defs>
<clipPath id="clip0_208_580">
<rect width="24" height="24" fill="white"/>
</clipPath>
</defs>
</svg>
