<svg width="18" height="22" viewBox="0 0 18 22" fill="none" xmlns="http://www.w3.org/2000/svg">
<path d="M16.6103 12.084C16.4063 11.651 16.1753 11.203 15.9213 10.74C15.6963 10.331 15.5793 9.838 15.5823 9.313C15.5883 8.182 15.5153 7.036 15.3653 5.906C14.9333 2.65 11.8783 0 8.45933 0C5.13733 0 2.08333 2.649 1.65033 5.906C1.50033 7.036 1.42733 8.182 1.43333 9.313C1.43633 9.837 1.31933 10.331 1.09333 10.741C0.840333 11.201 0.609334 11.648 0.406334 12.079C-0.0936665 13.139 -0.133666 14.324 0.294334 15.414C0.720334 16.503 1.55233 17.345 2.63533 17.783C3.30633 18.054 4.01733 18.28 4.93133 18.439C4.94733 20.405 6.54533 22 8.50733 22C10.4693 22 12.0643 20.409 12.0833 18.446C12.9963 18.289 13.7043 18.063 14.3913 17.783C15.4713 17.343 16.2993 16.502 16.7233 15.415C17.1483 14.326 17.1083 13.143 16.6103 12.084ZM8.50833 20C7.72133 20 7.06733 19.415 6.95033 18.654C7.42233 18.679 7.93733 18.692 8.50733 18.692C9.07733 18.692 9.59533 18.68 10.0663 18.656C9.94833 19.416 9.29433 20 8.50833 20ZM14.8613 14.688C14.6383 15.259 14.2043 15.7 13.6383 15.931C12.4833 16.401 11.2223 16.692 8.50833 16.692C5.81633 16.692 4.55233 16.4 3.38633 15.928C2.81733 15.698 2.38133 15.257 2.15733 14.684C1.93233 14.111 1.95433 13.488 2.21733 12.93C2.40333 12.534 2.61533 12.125 2.84633 11.704C3.23533 10.996 3.43833 10.165 3.43333 9.302C3.42833 8.263 3.49533 7.209 3.63233 6.17C3.93233 3.91 6.14233 2.001 8.55533 2.001C10.8713 2.001 13.0813 3.91 13.3823 6.17C13.5203 7.21 13.5873 8.264 13.5813 9.303C13.5763 10.168 13.7793 10.999 14.1683 11.705C14.4003 12.129 14.6133 12.54 14.8003 12.937C15.0623 13.494 15.0843 14.117 14.8603 14.689L14.8613 14.688Z" fill="#4B4B4C"/>
</svg>
