<svg width="312" height="253" viewBox="0 0 312 253" fill="none" xmlns="http://www.w3.org/2000/svg">
<g clip-path="url(#clip0_106_19)">
<path opacity="0.18" d="M49.3957 71.3217C40.2354 73.2767 30.7194 75.4014 23.3687 81.2412C17.1599 86.1696 7.4879 95.2656 4.5551 102.658C-7.86249 133.875 6.17751 171.862 33.4213 191.293C46.2383 200.433 62.2065 204.852 73.7255 215.608C81.0076 222.409 86.1119 231.417 93.862 237.672C105.188 246.799 120.476 248.824 134.946 249.798C144.999 250.483 155.445 250.779 164.767 246.931C171.506 244.147 177.222 239.375 182.826 234.673L219.96 203.431C225.925 198.415 231.504 190.432 239.273 190.482C309.198 190.985 313.909 108.083 206.594 71.3657C197.134 68.1283 190.651 59.1329 181.765 54.5188C163.407 44.989 142.284 48.0755 123.77 54.6697C100.264 63.0617 73.7879 66.0916 49.3895 71.3217H49.3957Z" fill="#DB956C"/>
<path opacity="0.05" d="M293.455 200.276C296.693 200.332 300.862 201.143 301.361 204.362C301.629 206.04 300.681 207.668 299.645 209.02C293.193 217.519 282.497 221.812 271.946 222.962C261.394 224.113 250.761 222.503 240.228 221.196C225.002 219.304 209.72 218.047 194.376 217.424C183.469 216.978 171.993 216.701 162.596 211.107C160.855 210.069 159.139 208.774 158.303 206.914C156.637 203.211 159.27 198.704 162.877 196.906C166.483 195.108 170.733 195.284 174.758 195.504C214.307 197.648 253.831 200.276 293.449 200.276H293.455Z" fill="#000405"/>
<path d="M226.156 84.0574V193.267C226.156 199.018 221.52 203.683 215.81 203.683H53.6765C47.9669 203.683 43.3306 199.018 43.3306 193.26V84.0511C43.3306 78.2993 47.9544 73.635 53.664 73.6287H215.81C221.52 73.6287 226.156 78.2867 226.156 84.0448V84.0574Z" fill="#DB956C"/>
<path d="M223.354 76.9666H45.8638L47.3052 75.854C47.3738 75.7974 47.4425 75.7408 47.5111 75.6906L131.938 10.4907L134.603 8.43511L220.509 74.7791L223.348 76.9729L223.354 76.9666Z" fill="#DB956C"/>
<path d="M226.156 84.0574L223.997 85.629L208.272 97.1012L131.939 152.803L58.525 95.8439L43.3306 84.0574L43.524 82.0333C43.8922 80.1349 44.7845 78.381 46.0949 76.9666C46.463 76.5643 46.8624 76.1935 47.293 75.854C47.3616 75.7974 47.4302 75.7408 47.4989 75.6906C49.2835 74.3516 51.4426 73.6287 53.6702 73.635H215.804C221.133 73.635 225.582 77.7147 226.1 83.0516C226.131 83.3848 226.15 83.7242 226.15 84.0574H226.156Z" fill="#DB956C"/>
<path d="M208.279 75.9923V97.1074L180.105 117.644L173.647 122.371L131.945 152.803L92.72 122.371L86.6422 117.663L58.5186 95.8691V75.9923C58.5186 72.5726 61.2704 69.8004 64.665 69.8004H202.138C205.527 69.8004 208.279 72.5726 208.279 75.9923Z" fill="white"/>
<path d="M187.63 94.505H76.5397C75.248 94.505 74.1997 93.4489 74.1997 92.1477C74.1997 90.8464 75.248 89.7904 76.5397 89.7904H187.63C188.922 89.7904 189.97 90.8464 189.97 92.1477C189.97 93.4489 188.922 94.505 187.63 94.505Z" fill="url(#paint0_linear_106_19)"/>
<path d="M187.63 108.441H76.5397C75.248 108.441 74.1997 107.385 74.1997 106.084C74.1997 104.783 75.248 103.727 76.5397 103.727H187.63C188.922 103.727 189.97 104.783 189.97 106.084C189.97 107.385 188.922 108.441 187.63 108.441Z" fill="url(#paint1_linear_106_19)"/>
<path d="M180.105 117.663L173.641 122.371H92.7203L86.6426 117.663H180.105Z" fill="url(#paint2_linear_106_19)"/>
<path opacity="0.05" d="M131.938 152.803L64.1846 203.695H201.096L131.938 152.803Z" fill="#000405"/>
<path d="M73.4945 37.7914C70.0812 30.4178 57.2705 31.631 57.2705 31.631C65.1766 26.9352 63.6603 14.9978 63.5667 14.2938C67.0236 24.6974 78.9607 22.4029 80.0278 22.1766C72.103 24.1442 73.4945 37.7914 73.4945 37.7914Z" fill="#DB956C"/>
<path d="M51.2741 52.9159C49.1088 48.2327 40.9531 48.9996 40.9531 48.9996C46.1136 45.9131 44.9405 37.9611 44.9405 37.9611V38.0051C47.1557 44.5804 54.7248 43.122 55.3987 42.9775C50.3818 44.2347 51.2678 52.9096 51.2678 52.9096L51.2741 52.9159Z" fill="#DB956C"/>
<path opacity="0.22" d="M43.6426 89.7967L128.382 155.481L131.939 152.803L43.3306 84.0574L43.6426 89.7967Z" fill="white"/>
<path opacity="0.22" d="M134.746 155.053L226.156 88.772V84.2523L131.938 152.985L134.746 155.053Z" fill="white"/>
<path opacity="0.22" d="M226.106 83.2402L225.857 83.9443L223.997 85.8175C225.301 83.5482 221.614 78.2742 221.614 78.2742L220.141 77.1615L215.717 73.811L131.938 10.6793L134.603 8.62369L220.509 74.9614C223.654 76.5769 225.763 79.7011 226.106 83.2465V83.2402Z" fill="white"/>
<path d="M293.592 52.9661C293.592 52.9661 279.514 71.3028 276.844 74.3768C271.97 79.9588 268.831 87.2822 268.831 87.2822L261.755 117.6L253.849 115.476L236.664 110.868C236.664 110.868 242.773 94.2975 239.815 89.2623C235.872 82.555 239.285 78.3622 240.184 75.4831C241.85 70.1462 233.351 60.3964 233.351 60.3964L227.903 35.8238L236.128 34.7175L242.093 54.6383L252.314 63.8286L259.596 64.2183C259.596 64.2183 265.087 65.3561 269.081 63.4954C272.9 61.7102 286.391 46.3846 286.391 46.3846L291.895 51.4135L293.592 52.9661Z" fill="#DB956C"/>
<path d="M269.524 38.8412C270.529 38.0303 271.802 37.6217 273.087 37.7097C274.029 37.672 274.947 37.9925 275.664 38.6086C276.22 39.2309 276.569 40.0104 276.669 40.8402C276.875 41.8711 276.95 42.9209 276.9 43.9644C276.806 45.8879 276.313 47.9247 277.137 49.6659C277.33 50.0808 277.599 50.458 277.917 50.7786C278.291 51.1997 278.809 51.4575 279.365 51.5015C279.939 51.5266 280.444 51.1306 280.556 50.5648C279.558 52.809 276.943 53.8085 274.716 52.8027C274.716 52.8027 274.703 52.8027 274.697 52.7964C274.354 52.6393 274.029 52.4381 273.73 52.1992L274.454 53.6765C273.855 53.5193 273.274 53.2993 272.725 53.0164C270.959 52.0484 269.967 50.0808 269.499 48.0944C269.081 46.2714 269 44.3918 268.607 42.5563C268.32 41.1608 268.395 39.8532 269.524 38.8412Z" fill="#231F20"/>
<path d="M268.994 40.8527C269.356 40.8402 269.712 40.8967 270.049 41.0162C270.623 41.2551 271.016 41.7957 271.066 42.418C271.097 43.0466 270.76 43.6312 270.198 43.9141C269.843 44.0587 269.462 44.1278 269.075 44.109C268.726 44.109 268.37 44.109 268.021 44.0775C267.796 44.0964 267.59 43.9455 267.54 43.7255C267.309 43.2666 267.141 42.7889 267.028 42.286C266.741 40.7459 267.771 40.8339 268.988 40.8465L268.994 40.8527Z" fill="#DB956C"/>
<path d="M262.217 55.5686C262.217 55.5686 262.149 56.7818 262.067 58.3534C261.999 59.6797 261.911 61.289 261.837 62.6217C261.718 64.8784 260.757 67.0031 259.147 68.5746C258.205 69.5427 255.965 71.3468 254.255 70.7056C253.425 70.3976 253.394 69.3415 253.569 68.7066C253.955 67.55 254.168 66.3493 254.205 65.1298C254.23 64.1429 254.143 63.1623 253.943 62.1942C252.876 59.4974 262.217 55.5623 262.217 55.5623V55.5686Z" fill="#FFB4A3"/>
<path d="M262.217 55.5686C262.217 55.5686 262.149 56.7818 262.067 58.3534C261.412 59.8306 260.795 61.0313 260.458 61.6284C259.777 62.8417 256.994 64.7464 254.218 65.1298C254.243 64.1429 254.155 63.1623 253.955 62.1942C252.876 59.4974 262.217 55.5623 262.217 55.5623V55.5686Z" fill="#E2897A"/>
<path d="M254.08 39.5201C249.151 39.8218 245.401 44.0901 245.694 49.0562C245.694 49.2699 245.725 49.4773 245.756 49.6911C246.037 53.3559 246.967 56.9327 248.508 60.2644C251.422 65.2933 258.804 61.157 259.971 59.0889C261.138 57.0207 265.624 47.6795 263.74 45.033C262.442 43.2478 258.842 39.3315 254.074 39.5201H254.08Z" fill="#FFB4A3"/>
<path d="M251.459 34.4094C254.592 33.4854 257.93 33.586 261.006 34.6923C264.033 35.849 266.641 38.2314 267.789 41.2739C268.782 44.0964 268.682 47.1955 267.521 49.9488C266.348 52.6833 264.482 55.0594 262.111 56.8321C261.499 54.9463 263.384 53.2679 264.114 51.4323C264.282 51.0929 264.32 50.7031 264.22 50.3322C263.952 49.6471 262.941 49.5716 262.361 50.0179C261.78 50.4643 261.531 51.2123 261.318 51.9101C261.88 48.9116 262.298 45.3913 260.189 43.1975C258.941 41.8962 257.057 41.4122 255.259 41.3934C251.921 41.3808 248.732 42.7637 246.442 45.209C245.781 45.9257 244.839 46.8057 244.002 46.3091C243.74 46.1268 243.534 45.8754 243.41 45.5862C240.926 40.6327 247.447 35.5032 251.459 34.3969V34.4094Z" fill="#231F20"/>
<path d="M255.478 39.9475C253.4 39.0235 251.216 38.2691 248.957 38.2691C246.698 38.2691 244.358 39.0423 242.861 40.7522C242.081 41.7077 241.513 42.814 241.194 44.0084C240.945 44.7564 240.845 45.5422 240.901 46.328C240.989 46.9 241.132 47.4595 241.319 48.0064C241.712 49.3642 241.875 50.942 241.026 52.0798C240.708 52.5387 240.196 52.8279 239.634 52.8593C239.067 52.8719 238.574 52.4507 238.493 51.8849C238.124 52.9284 238.723 54.1542 239.678 54.7011C240.67 55.2103 241.831 55.2669 242.867 54.8583C243.297 54.72 243.697 54.5 244.046 54.2108C244.389 53.8776 244.67 53.4879 244.876 53.0604C245.743 51.47 246.18 49.7099 246.829 47.9938C247.478 46.2777 248.42 44.6433 249.955 43.6752C251.172 43.0089 252.539 42.6632 253.924 42.682C255.303 42.638 256.688 42.7512 258.061 42.6254C259.434 42.4997 258.442 41.6762 257.849 41.2488C257.1 40.7396 256.308 40.3059 255.472 39.9601L255.478 39.9475Z" fill="#231F20"/>
<path d="M311.357 24.9174C311.713 25.194 308.399 27.7901 308.399 27.7901C308.399 27.7901 306.852 30.4743 305.279 31.2224C303.707 31.9704 291.888 51.4009 291.888 51.4009L287.227 47.1452L297.286 33.5105C297.286 33.5105 300.612 27.0861 300.244 24.2888C300.244 24.2888 300.443 20.9885 301.448 22.5224C302.153 23.6161 301.704 25.3385 302.54 25.5208C302.634 25.5271 302.727 25.5083 302.808 25.4643C303.501 25.0431 304.137 24.5276 304.699 23.9367C306.365 22.3401 308.349 20.121 308.349 20.121C308.349 20.121 309.441 19.6559 309.304 20.121C309.167 20.5862 307.164 23.723 307.052 23.8927C307.239 23.723 310.309 20.9571 310.796 21.1708C311.282 21.3846 308.418 24.5653 308.25 24.7476C308.431 24.6219 311.7 22.3275 311.95 22.5286C312.412 22.9184 309.454 25.502 309.211 25.7031C309.398 25.6026 311.026 24.6408 311.363 24.9111L311.357 24.9174Z" fill="#FFB4A3"/>
<path d="M307.85 26.9101C307.601 26.9918 307.339 27.0107 307.083 26.9729C306.247 26.9101 305.404 26.8975 304.562 26.9289C303.994 26.9541 302.827 27.3501 302.796 26.4638C302.796 26.2312 302.852 25.9986 302.84 25.766C302.84 25.6654 302.821 25.5648 302.796 25.4643C303.489 25.0431 304.125 24.5276 304.687 23.9367C304.942 24.0247 305.18 24.1442 305.404 24.3013L307.045 25.37C307.339 25.5648 307.626 25.7534 307.906 25.9672C308.031 26.0426 308.131 26.1557 308.187 26.2877C308.243 26.5518 308.094 26.8158 307.844 26.9101H307.85Z" fill="#FFB4A3"/>
<path d="M226.606 3.09817C226.156 3.14846 227.61 7.11501 227.61 7.11501C227.61 7.11501 227.517 10.2204 228.44 11.685C229.364 13.1497 229.27 35.6415 229.27 35.6415L235.46 34.8055L234.056 17.8706C234.056 17.8706 234.593 10.6415 236.371 8.46653C236.371 8.46653 237.925 5.55605 236.278 6.32296C235.105 6.87614 234.587 8.57969 233.782 8.29052C233.694 8.25281 233.626 8.18366 233.588 8.09565C233.208 7.36646 232.933 6.59326 232.758 5.79492C232.172 3.55077 231.654 0.608855 231.654 0.608855C231.654 0.608855 230.986 -0.352925 230.88 0.11225C230.774 0.577424 230.811 4.30511 230.811 4.51883C230.743 4.27996 229.563 0.28826 229.046 0.219113C228.528 0.149965 229.289 4.36797 229.339 4.61313C229.245 4.41197 227.673 0.722006 227.348 0.766009C226.755 0.854015 227.935 4.63199 228.022 4.91486C227.904 4.73256 227.03 3.06045 226.606 3.09817Z" fill="#FFB4A3"/>
<path d="M228.515 6.65613C228.69 6.85728 228.908 7.01443 229.151 7.11501C229.894 7.51104 230.618 7.94479 231.317 8.42253C231.785 8.74313 232.565 9.71119 233.058 8.96314C233.189 8.76827 233.251 8.54197 233.388 8.3471C233.451 8.26538 233.513 8.18366 233.582 8.10822C233.201 7.37903 232.927 6.60584 232.752 5.8075C232.49 5.74463 232.221 5.72578 231.953 5.73835L230 5.77606C229.651 5.76978 229.301 5.78235 228.952 5.82007C228.802 5.82007 228.658 5.86407 228.534 5.94579C228.353 6.14066 228.346 6.44868 228.515 6.65613Z" fill="#FFB4A3"/>
<path d="M278.884 201.879L275.677 203.689L248.215 174.609L245.188 135.786L220.147 158.668C220.147 158.668 220.815 174.421 212.06 186.748C210.494 188.954 207.299 195.372 204.884 200.389C204.809 200.546 204.734 200.703 204.666 200.86L204.198 200.766L202.563 200.42L199.012 199.685L210.519 152.828L236.671 110.887L253.856 115.494L261.762 117.619C261.762 117.619 267.097 128.387 261.762 156.254L258.224 172.208C258.224 172.208 272.476 179.865 276.869 195.014L278.853 201.872H278.872L278.884 201.879Z" fill="#4B4B4C"/>
<path d="M204.666 200.841C203 204.267 201.789 206.926 201.789 206.926L180.848 207.932C180.848 207.932 184.317 198.679 189.964 201.074C191.874 201.879 198.794 200.364 198.794 200.364L199.012 199.666L204.666 200.841Z" fill="url(#paint3_linear_106_19)"/>
<path d="M278.884 201.879L282.142 205.311L273.868 213.998H263.047C263.047 213.998 265.35 210.164 269.961 209.554C274.573 208.944 275.671 203.689 275.671 203.689L278.872 201.885L278.884 201.879Z" fill="url(#paint4_linear_106_19)"/>
<path d="M293.592 52.9661C293.592 52.9661 279.515 71.3028 276.844 74.3767C271.971 79.9588 268.832 87.2822 268.832 87.2822L261.756 117.6L253.85 115.476C253.85 115.476 261.232 87.6719 264.196 81.7755C267.16 75.8729 291.882 51.4135 291.882 51.4135L293.586 52.9661H293.592Z" fill="url(#paint5_linear_106_19)"/>
<path d="M278.859 201.866C278.716 201.445 274.017 188.301 266.966 182.794C259.802 177.193 255.647 169.467 255.647 169.467C253.981 154.632 253.843 115.476 253.843 115.476L261.749 117.6C261.749 117.6 267.085 128.368 261.749 156.235L258.211 172.189C258.211 172.189 272.463 179.865 276.856 195.014L278.859 201.872V201.866Z" fill="#6B6E6C"/>
<path d="M220.147 158.661C220.147 158.661 220.815 174.414 212.06 186.742C210.494 188.948 207.299 195.366 204.884 200.382L204.192 200.753L202.557 200.408L216.129 157.285C216.129 157.285 232.565 137.666 235.585 135.786C238.599 133.907 245.188 135.786 245.188 135.786L220.141 158.661H220.147Z" fill="#6B6E6C"/>
</g>
<defs>
<linearGradient id="paint0_linear_106_19" x1="138.166" y1="62.7851" x2="107.364" y2="209.388" gradientUnits="userSpaceOnUse">
<stop stop-color="#231F20" stop-opacity="0"/>
<stop offset="1" stop-color="#231F20"/>
</linearGradient>
<linearGradient id="paint1_linear_106_19" x1="140.93" y1="63.3571" x2="110.128" y2="209.966" gradientUnits="userSpaceOnUse">
<stop stop-color="#231F20" stop-opacity="0"/>
<stop offset="1" stop-color="#231F20"/>
</linearGradient>
<linearGradient id="paint2_linear_106_19" x1="144.462" y1="64.1051" x2="113.661" y2="210.714" gradientUnits="userSpaceOnUse">
<stop stop-color="#231F20" stop-opacity="0"/>
<stop offset="1" stop-color="#231F20"/>
</linearGradient>
<linearGradient id="paint3_linear_106_19" x1="191.006" y1="197.026" x2="194.259" y2="210.48" gradientUnits="userSpaceOnUse">
<stop stop-color="#67DDF9"/>
<stop offset="0.12" stop-color="#5CB3CE"/>
<stop offset="0.24" stop-color="#538EA9"/>
<stop offset="0.37" stop-color="#4C718B"/>
<stop offset="0.5" stop-color="#465A73"/>
<stop offset="0.63" stop-color="#424A63"/>
<stop offset="0.79" stop-color="#404059"/>
<stop offset="0.99" stop-color="#3F3D56"/>
</linearGradient>
<linearGradient id="paint4_linear_106_19" x1="270.074" y1="206.097" x2="275.474" y2="213.596" gradientUnits="userSpaceOnUse">
<stop stop-color="#67DDF9"/>
<stop offset="0.12" stop-color="#5CB3CE"/>
<stop offset="0.24" stop-color="#538EA9"/>
<stop offset="0.37" stop-color="#4C718B"/>
<stop offset="0.5" stop-color="#465A73"/>
<stop offset="0.63" stop-color="#424A63"/>
<stop offset="0.79" stop-color="#404059"/>
<stop offset="0.99" stop-color="#3F3D56"/>
</linearGradient>
<linearGradient id="paint5_linear_106_19" x1="256.932" y1="46.7869" x2="317.168" y2="179.104" gradientUnits="userSpaceOnUse">
<stop stop-color="#231F20" stop-opacity="0"/>
<stop offset="1" stop-color="#231F20"/>
</linearGradient>
<clipPath id="clip0_106_19">
<rect width="312" height="253" fill="white"/>
</clipPath>
</defs>
</svg>
