<svg width="312" height="253" viewBox="0 0 312 253" fill="none" xmlns="http://www.w3.org/2000/svg">
<path d="M306.723 144.414L189.001 81.9779C187.263 81.0539 185.164 81.0539 183.426 81.9779L7.27677 173.85C4.59797 175.236 3.65677 178.338 5.24957 180.78C5.75637 181.572 6.48037 182.232 7.27677 182.628L119.931 241.896C125.578 244.866 132.456 244.866 138.104 241.896L306.723 153.192C309.402 151.806 310.271 148.704 308.75 146.262C308.244 145.47 307.592 144.81 306.723 144.414Z" fill="#DB956C"/>
<path d="M173.58 8.32211C186.901 15.5161 219.916 33.3361 229.762 38.5501C231.5 39.4741 232.513 41.1241 232.513 42.9061V166.326C232.73 168.834 229.617 171.144 227.083 169.824L171.625 141.048C169.38 139.86 168.005 138.276 168.005 135.9V11.2921C168.005 9.37811 169.67 7.86011 171.77 7.86011C172.349 7.86011 173 8.05811 173.58 8.32211Z" fill="#DECFC4"/>
<path d="M168.294 9.84004L185.96 19.08V22.512C185.96 23.106 186.322 23.634 186.829 23.964L200.295 31.092C200.874 31.422 201.598 31.224 201.888 30.696C201.96 30.498 202.033 30.366 202.033 30.168V27.66L227.373 41.19C227.88 41.454 228.169 41.916 228.169 42.444V165.798C228.169 166.326 227.662 166.788 227.083 166.788C226.866 166.788 226.721 166.722 226.504 166.656L167.788 135.636C167.57 137.616 168.584 139.464 170.394 140.586C173.435 142.368 226.938 169.956 226.938 169.956C226.938 169.956 231.21 171.672 232.368 167.118V43.038C232.368 41.388 231.5 39.87 230.052 38.946C227.59 37.362 173.435 8.45404 173.435 8.45404C173.435 8.45404 170.249 6.67204 168.294 9.84004Z" fill="#4B4B4C"/>
<path d="M182.167 126.122C183.659 125.859 184.525 124.022 184.101 122.018C183.677 120.013 182.124 118.601 180.632 118.863C179.14 119.126 178.274 120.963 178.698 122.967C179.122 124.972 180.675 126.384 182.167 126.122Z" fill="#EC6F25"/>
<path d="M191.508 130.677C193 130.415 193.866 128.578 193.442 126.574C193.018 124.569 191.465 123.157 189.973 123.419C188.481 123.681 187.615 125.519 188.039 127.523C188.463 129.527 190.016 130.94 191.508 130.677Z" fill="#EC6F25"/>
<path d="M200.479 135.102C201.971 134.839 202.837 133.002 202.413 130.998C201.989 128.993 200.436 127.581 198.944 127.843C197.452 128.106 196.586 129.943 197.01 131.947C197.434 133.952 198.987 135.364 200.479 135.102Z" fill="#EC6F25"/>
<path d="M209.467 139.588C210.959 139.326 211.825 137.488 211.401 135.484C210.977 133.48 209.424 132.067 207.932 132.33C206.44 132.592 205.574 134.429 205.998 136.434C206.422 138.438 207.975 139.85 209.467 139.588Z" fill="#EC6F25"/>
<path d="M73.1608 156.624C73.1608 151.344 80.1836 147.186 89.1612 147.186C98.1388 147.186 105.162 151.344 105.162 156.624C105.162 161.904 98.1388 166.062 89.1612 166.062C80.1836 166.062 73.1608 161.904 73.1608 156.624ZM77.722 156.624C77.722 159.132 82.428 161.904 89.1612 161.904C95.8944 161.904 100.6 159.132 100.6 156.624C100.6 154.116 95.8944 151.344 89.1612 151.344C82.428 151.344 77.722 154.116 77.722 156.624Z" fill="white"/>
<path d="M78.1563 160.584C77.6495 160.122 55.6399 172.134 55.6399 172.134L41.4495 179.658L44.5627 181.836C45.3591 182.364 46.4451 182.496 47.3139 182.034L81.5591 164.016L78.1563 160.584Z" fill="white"/>
<path d="M41.7391 174.51L47.5311 178.008L44.4903 181.902L38.2639 178.338C38.2639 176.424 39.7843 174.576 41.7391 174.51Z" fill="white"/>
<path d="M48.6172 170.55C49.4136 169.89 50.4996 169.626 51.5856 169.758L57.088 173.058L54.0472 176.952L47.2416 173.058C47.314 172.068 47.8208 171.144 48.6172 170.55Z" fill="white"/>
<path d="M95.098 43.4339L87.3512 39.4739C87.3512 39.4739 80.0388 46.1399 60.4184 37.6919C60.4184 37.6919 48.9792 58.0859 33.92 67.9859C33.92 67.9859 33.0512 105.21 55.4952 112.074" fill="#EC6F25"/>
<path opacity="0.51" d="M95.098 43.4339L87.3512 39.4739C87.3512 39.4739 80.0388 46.1399 60.4184 37.6919C60.4184 37.6919 48.9792 58.0859 33.92 67.9859C33.92 67.9859 33.0512 105.21 55.4952 112.074" fill="#124577"/>
<path d="M40.6533 71.8139C51.7305 63.3659 60.7081 52.8719 67.1517 41.0579C67.1517 41.0579 79.0253 49.6379 95.1705 43.4339C95.1705 43.4339 92.6365 74.8499 84.7449 90.2279C76.8533 105.606 75.2605 108.048 67.9481 115.44C67.9481 115.44 58.7533 117.288 51.0065 107.718C40.0741 94.4519 40.6533 71.8139 40.6533 71.8139Z" fill="#EC6F25"/>
<path d="M65.8484 87.0598C64.1832 84.4198 62.5904 81.7138 61.07 79.0078C60.346 77.6878 58.536 77.1598 57.088 77.8858C56.6536 78.0838 56.2916 78.4138 56.002 78.7438L55.9296 78.8098C55.3504 79.6018 55.278 80.6578 55.7848 81.5818C57.3776 84.3538 58.9704 87.1258 60.708 89.8978C62.5904 92.8018 67.8032 90.0958 65.8484 87.0598Z" fill="white"/>
<path d="M60.9252 87.1259C67.0792 78.4139 72.654 69.4379 77.722 60.1319C79.4596 56.9639 84.6 59.7359 82.8624 62.9039C77.7944 72.1439 72.2196 81.1859 66.0656 89.8979C64.0384 92.8019 58.8256 90.0299 60.9252 87.1259Z" fill="white"/>
<path d="M205.653 97.6859C205.653 97.6859 212.169 93.8579 212.241 93.7919C212.314 93.7259 207.897 90.6899 207.897 90.6899L205.363 95.0459" fill="#6B6E6C"/>
<path d="M180.458 51.222L186.25 47.79L187.698 54.786L181.833 53.664" fill="#6B6E6C"/>
<path d="M188.494 47.6581C187.48 47.1301 186.25 47.4601 185.67 48.3181C185.526 48.5821 185.381 48.9121 185.381 49.2421L184.729 79.0741C184.729 79.9981 185.308 80.9221 186.177 81.3841L209.2 93.8581C210.576 94.6501 212.314 94.2541 213.182 93.0001C213.472 92.5381 213.617 92.0761 213.617 91.5481V62.3761C213.617 61.3861 213.038 60.5281 212.096 60.0661L188.494 47.6581Z" fill="#6B6E6C"/>
<path d="M182.34 51.3541C181.326 50.8261 180.096 51.1561 179.516 52.0141C179.372 52.2781 179.227 52.6081 179.227 52.9381L178.575 82.7041C178.575 83.6281 179.154 84.5521 180.023 85.0141L203.046 97.4881C204.422 98.2801 206.16 97.8841 207.028 96.6301C207.318 96.1681 207.463 95.7061 207.463 95.1781V66.0061C207.463 65.0161 206.884 64.1581 205.942 63.6961L182.34 51.3541Z" fill="#4B4B4C"/>
<path d="M192.591 76.4742C195.302 76.2771 197.218 72.9068 196.871 68.9464C196.525 64.986 194.047 61.9351 191.336 62.1322C188.626 62.3293 186.71 65.6996 187.056 69.66C187.403 73.6204 189.881 76.6712 192.591 76.4742Z" fill="#68E1FD"/>
<path d="M190.449 70.2961H192.114C192.693 70.2961 193.128 70.6921 193.128 71.2201V83.4961C193.128 84.0241 192.693 84.4201 192.114 84.4201H190.449C189.87 84.4201 189.435 84.0241 189.435 83.4961V71.2201C189.435 70.6921 189.87 70.2961 190.449 70.2961Z" fill="#68E1FD"/>
<path d="M204.639 60.9901C205.959 60.9901 207.028 60.3991 207.028 59.6701C207.028 58.9411 205.959 58.3501 204.639 58.3501C203.32 58.3501 202.25 58.9411 202.25 59.6701C202.25 60.3991 203.32 60.9901 204.639 60.9901Z" fill="white"/>
<path d="M197.472 36.636C186.322 34.194 186.467 45.942 186.467 45.942V50.166C186.467 50.76 186.394 51.684 186.684 52.014C187.263 52.542 187.987 52.806 188.784 52.74C189.435 52.74 190.376 52.674 190.811 52.08C191.028 51.552 191.028 51.024 190.956 50.496C190.883 49.506 190.883 48.516 190.883 47.592C190.956 45.48 191.173 42.906 192.621 41.19C193.634 40.068 195.3 39.672 196.748 40.266C202.467 41.982 202.322 48.252 202.322 48.252V59.802H207.101V47.922C207.028 47.79 206.16 38.484 197.472 36.636Z" fill="white"/>
<path d="M165.254 98.544C165.326 98.412 165.399 98.214 165.399 98.082C165.399 96.366 164.675 94.716 163.299 93.528C162.358 92.736 160.837 92.802 160.041 93.726C159.896 93.858 159.824 93.99 159.679 94.188C158.159 96.96 161.561 99.732 164.313 100.062C165.037 100.128 165.399 99.6 165.254 99.006C165.181 98.874 165.254 98.676 165.254 98.544Z" fill="#FBB5AD"/>
<path d="M162.503 146.328L157.073 143.556L161.634 154.842L162.503 146.328Z" fill="#382624"/>
<path d="M212.024 80.3941C211.952 80.3281 211.952 80.1961 211.879 80.1301C212.314 79.7341 212.531 79.2061 212.531 78.6121C212.459 78.2821 212.314 77.9521 211.952 77.6881C212.314 77.2921 212.241 76.6981 211.807 76.3021C211.59 76.1041 211.228 76.0381 210.938 76.1041C209.418 76.3681 208.404 78.2161 207.608 79.2721C207.029 80.0641 206.449 80.9221 205.87 81.7141C205.798 80.5261 205.581 79.2721 205.508 78.1501C205.436 77.0281 203.481 76.9621 203.481 78.1501C203.626 79.9321 203.409 81.7801 202.902 83.5621C202.685 83.6281 202.54 83.7601 202.395 83.8921C196.675 89.3701 189.58 93.3961 181.689 95.5741C180.675 95.9041 180.241 96.8941 180.603 97.8181C180.82 98.3461 181.327 98.7421 181.906 98.8741C181.978 99.6001 182.485 100.194 183.281 100.392C183.426 100.92 183.788 101.382 184.295 101.646L182.992 102.174C180.82 102.966 181.761 106.266 184.005 105.408C192.259 102.24 199.571 97.2901 205.146 90.8881C205.798 90.2941 206.449 89.7661 207.029 89.1721C207.97 88.2481 212.748 83.9581 211.517 82.1101C211.735 81.7141 212.386 81.1861 212.024 80.3941Z" fill="#FBB5AD"/>
<path d="M179.372 60.3301C177.127 61.1221 175.462 65.4781 175.607 66.4021L177.345 65.6101L177.634 65.2801C177.996 63.5641 178.575 61.8481 179.372 60.3301Z" fill="#FBB5AD"/>
<path d="M179.661 63.8282C179.444 63.7622 179.299 63.6962 179.155 63.5642C178.286 62.9702 176.983 63.7622 176.186 64.1582C175.173 64.6202 174.231 65.2142 173.363 65.8742C172.928 66.3362 172.639 66.9302 172.494 67.5242C172.132 68.2502 171.842 68.9762 171.48 69.6362C170.684 71.0882 169.815 72.5402 168.874 73.9262C166.991 76.6322 164.819 79.0742 162.285 81.2522C161.127 82.3082 162.937 83.8922 164.095 82.8362L164.892 82.1102C165.254 82.3082 165.688 82.3082 166.05 82.0442C166.267 81.9122 166.485 81.7802 166.629 81.6482C166.702 81.5822 166.774 81.5162 166.919 81.4502C167.136 82.0442 167.86 82.3082 168.512 82.1102C168.657 82.0442 168.801 81.9782 168.946 81.8462L169.815 81.0542C170.105 80.9882 170.322 80.7902 170.394 80.5262C170.394 80.4602 170.539 82.1102 170.539 82.0442C171.915 80.7242 173.507 77.0942 174.883 74.9162C174.883 74.7842 174.883 74.7182 174.955 74.6522C176.041 73.0682 175.897 72.1442 176.041 70.3622C176.041 69.3062 176.114 68.3162 176.331 67.3262L178.575 65.7422C179.082 65.3462 179.661 64.8182 179.589 64.2242C179.661 64.0922 179.661 63.9602 179.661 63.8282Z" fill="#FBB5AD"/>
<path d="M187.987 92.5381C180.023 94.6501 178.72 93.8581 174.955 93.7261C171.191 93.5941 167.136 88.8421 167.136 88.8421C167.136 88.8421 166.195 78.0841 159.172 86.5321C153.959 92.8021 151.932 110.952 151.281 119.73C153.887 121.644 157.362 122.304 160.62 122.766C162.792 123.096 164.964 123.294 167.136 123.294C168.512 123.294 169.815 123.03 171.046 122.502L174.738 106.728C184.223 107.454 191.535 102.372 191.535 102.372L187.987 92.5381Z" fill="#6B6E6C"/>
<path d="M170.901 79.6681C170.901 79.6681 176.041 88.5781 170.973 91.0861C165.905 93.5941 161.996 89.4361 161.561 88.3801C161.127 87.3241 161.199 79.0081 170.901 79.6681Z" fill="#FBB5AD"/>
<path d="M171.335 78.2821C168.729 76.5661 165.543 76.5661 162.575 77.1601C160.113 77.6881 157.507 78.6781 155.769 80.3941C155.118 79.9981 154.321 79.8001 153.525 79.7341C151.57 79.6021 149.76 80.6581 149.036 82.3081C148.385 83.8921 149.036 85.6081 150.557 86.5321C151.715 87.0601 153.018 87.1921 154.321 86.8621C154.321 86.9281 154.321 86.9941 154.321 87.0601C154.466 88.7761 152.729 89.6341 152.077 91.0201C151.715 91.6801 151.643 92.4061 151.787 93.1321C151.932 93.8581 152.729 94.5841 152.729 95.3101C152.584 95.8381 152.294 96.3661 151.932 96.8281C151.57 97.2901 151.281 97.8181 151.063 98.4121C154.756 100.194 159.317 100.194 163.299 99.4681C167.571 98.6761 171.915 96.8941 174.738 93.8581C174.593 93.4621 174.304 93.1321 173.942 92.8681C173.29 92.4721 172.566 92.0761 171.77 91.8121C170.684 91.2181 171.77 89.5021 171.77 88.5781C171.697 86.9941 170.394 86.3341 168.946 85.7401C167.933 85.3441 167.86 84.7501 167.86 83.7601C167.788 82.9681 167.933 82.1761 168.367 81.5161C168.657 81.5821 169.019 81.5161 169.308 81.3181C169.887 81.0541 170.467 80.7901 171.046 80.5921C171.697 80.3941 171.987 79.7341 171.77 79.2061C171.77 78.8101 171.625 78.4801 171.335 78.2821Z" fill="#382624"/>
<path d="M167.426 81.846C169.091 81.516 170.684 80.988 172.204 80.328C172.204 80.196 172.711 74.652 161.851 76.566C150.991 78.48 156.131 90.294 156.131 90.294" fill="#382624"/>
<path d="M155.625 204.738C154.611 204.408 153.163 204.21 152.511 203.352C151.86 202.494 151.86 201.24 151.86 200.25C151.86 199.26 151.86 198.27 151.86 197.28C151.715 197.214 151.643 197.082 151.643 196.884C151.57 196.092 151.57 195.234 151.643 194.442L147.154 194.046C147.154 194.046 145.127 201.042 145.271 201.834C145.416 202.626 149.688 207.972 151.86 208.302C154.032 208.632 160.041 206.916 160.548 206.19C160.548 206.19 160.548 206.124 160.62 206.124C158.955 205.728 157.29 205.266 155.625 204.738Z" fill="#FBB5AD"/>
<path d="M186.684 190.086C185.236 189.822 179.082 190.746 179.082 190.746C179.082 190.746 178.213 186.192 178.358 185.928L171.987 186.324C171.987 186.324 171.191 194.838 171.191 195.894C171.191 197.94 174.014 198.6 174.593 198.534C175.028 198.402 175.462 198.27 175.897 198.072C175.679 197.016 175.535 195.96 175.535 194.838C175.535 194.31 175.679 193.98 176.186 193.848C177.127 193.518 178.865 193.98 179.806 194.178C180.965 194.376 182.051 194.64 183.209 194.838C185.743 193.584 187.843 192.462 188.06 192C188.422 190.812 189.001 190.548 186.684 190.086Z" fill="#FBB5AD"/>
<path d="M188.856 190.482C188.784 190.416 188.784 190.35 188.711 190.35C188.204 189.888 186.901 189.954 186.322 189.954C183.86 189.954 181.471 190.218 179.082 190.812C179.082 190.812 184.874 190.086 185.091 191.01C185.308 191.802 185.091 192.594 184.512 193.188C182.05 195.168 178.286 192.99 175.969 192.066L171.625 190.35L171.335 193.584C171.335 193.584 171.046 197.61 171.335 198.072C171.625 198.534 174.231 199.788 174.81 199.524C175.39 199.26 177.055 198.336 177.055 198.336L176.693 194.442C176.693 194.442 180.313 195.894 182.05 195.432C183.281 195.102 190.304 192.33 188.856 190.482Z" fill="#382624"/>
<path d="M168.222 188.634C173.942 189.624 179.951 188.7 184.222 185.202C184.295 176.556 185.164 168.768 184.947 160.188C184.512 146.13 182.268 132.27 171.408 121.314L151.715 118.542C143.678 132.402 142.086 195.96 142.086 195.96C142.086 195.96 152.077 201.834 159.751 198.996L162.72 146.064C162.72 146.064 167.932 151.674 168.874 154.842C169.525 157.086 168.077 178.008 168.222 188.634Z" fill="#EC6F25"/>
<path d="M149.108 201.966C149.108 201.966 151.425 208.632 152.294 209.094C153.163 209.556 162.213 206.916 160.837 205.332C159.968 204.342 154.538 204.342 154.032 204.21C154.032 204.21 156.928 205.068 156.928 205.464C156.928 205.86 153.308 207.378 153.163 207.114C153.018 206.85 149.036 200.91 149.036 200.91L145.344 199.722L142.303 205.86L144.909 206.85C144.909 206.85 145.706 208.698 145.995 208.698C146.285 208.698 148.384 205.266 148.384 205.266C148.384 205.266 148.891 207.444 149.253 207.708C149.615 207.972 152.656 210.216 154.032 208.5L151.498 205.926" fill="#382624"/>
<path d="M142.23 205.926L142.737 207.444L145.85 208.83V205.926L144.04 205.332" fill="#382624"/>
</svg>
