<svg width="128" height="128" viewBox="0 0 128 128" fill="none" xmlns="http://www.w3.org/2000/svg">
<g clip-path="url(#clip0_208_178)">
<path d="M64 0C28.7093 0 0 28.7093 0 64C0 99.2907 28.7093 128 64 128C99.2907 128 128 99.2907 128 64C128 28.7093 99.2907 0 64 0ZM97.0667 56.064L73.4613 79.2373C69.2853 83.3333 63.9093 85.376 58.528 85.376C53.2053 85.376 47.8827 83.3707 43.7227 79.3547L33.5947 69.3973C31.4933 67.3333 31.4667 63.9573 33.5307 61.856C35.5893 59.7493 38.976 59.7227 41.072 61.792L51.168 71.7173C55.3067 75.7173 61.84 75.696 66 71.6213L89.6 48.4533C91.696 46.384 95.0613 46.4213 97.1413 48.5227C99.2053 50.624 99.1733 54 97.0667 56.064Z" fill="#EC6F25"/>
</g>
<defs>
<clipPath id="clip0_208_178">
<rect width="128" height="128" fill="white"/>
</clipPath>
</defs>
</svg>
